<?xml version="1.0" encoding="UTF-8"?>
<svg width="112.89mm" height="78.968mm" version="1.1" viewBox="0 0 400.00002 279.8068" xmlns="http://www.w3.org/2000/svg" xmlns:xlink="http://www.w3.org/1999/xlink">
 <defs>
  <linearGradient id="ae">
   <stop stop-color="#4d4d4d" offset="0"/>
   <stop stop-color="#4d4d4d" stop-opacity="0" offset="1"/>
  </linearGradient>
  <linearGradient id="ad">
   <stop offset="0"/>
   <stop stop-opacity="0" offset="1"/>
  </linearGradient>
  <linearGradient id="ac">
   <stop stop-color="#ccc" offset="0"/>
   <stop stop-color="#ccc" stop-opacity="0" offset="1"/>
  </linearGradient>
  <linearGradient id="ab">
   <stop stop-color="#fff" stop-opacity=".602" offset="0"/>
   <stop stop-color="#fff" stop-opacity="0" offset="1"/>
  </linearGradient>
  <linearGradient id="aa">
   <stop stop-color="#fff" offset="0"/>
   <stop stop-color="#fff" stop-opacity="0" offset="1"/>
  </linearGradient>
  <radialGradient id="af" cx="-90.914" cy="511.85" r="64.859" gradientTransform="matrix(-.36115 2.6141 -2.8829 -.39828 1351.8 956.48)" gradientUnits="userSpaceOnUse" xlink:href="#aa"/>
  <radialGradient id="ag" cx="-90.914" cy="511.85" r="64.859" gradientTransform="matrix(-.36115 2.6141 -2.8829 -.39828 1305.4 952.44)" gradientUnits="userSpaceOnUse" xlink:href="#ab"/>
  <radialGradient id="ah" cx="-90.914" cy="511.85" r="64.859" gradientTransform="matrix(-.29406 2.1285 -2.3474 -.3243 1230 908.61)" gradientUnits="userSpaceOnUse" xlink:href="#aa"/>
  <radialGradient id="ai" cx="-90.914" cy="511.85" r="64.859" gradientTransform="matrix(-.29406 2.1285 -2.3474 -.3243 1192.1 905.32)" gradientUnits="userSpaceOnUse" xlink:href="#ab"/>
  <radialGradient id="aq" cx="-996.73" cy="364.31" r="84.135" gradientTransform="matrix(1.132 .23694 -.92054 4.3981 466.97 -1042.5)" gradientUnits="userSpaceOnUse" xlink:href="#ac"/>
  <filter id="y" x="-.033655" y="-.0073017" width="1.0673" height="1.0146" color-interpolation-filters="sRGB">
   <feGaussianBlur stdDeviation="2.2911892"/>
  </filter>
  <radialGradient id="ar" cx="-996.73" cy="364.31" r="84.135" gradientTransform="matrix(1.132 .23694 -.92054 4.3981 1260.2 -881.4)" gradientUnits="userSpaceOnUse" xlink:href="#ac"/>
  <linearGradient id="al" x1="-739.21" x2="-656.31" y1="548.04" y2="206.76" gradientTransform="matrix(.22482 0 0 .22482 -923.07 876.88)" gradientUnits="userSpaceOnUse" xlink:href="#ad"/>
  <linearGradient id="am" x1="-609.33" x2="-667.37" y1="248.21" y2="257.88" gradientTransform="matrix(.22482 0 0 .22482 -923.07 876.88)" gradientUnits="userSpaceOnUse" xlink:href="#ad"/>
  <radialGradient id="as" cx="-753.03" cy="363.2" r="66.671" gradientTransform="matrix(.11593 .044863 -.11713 .30268 -962.53 880.76)" gradientUnits="userSpaceOnUse">
   <stop stop-color="#e6e6e6" offset="0"/>
   <stop stop-opacity="0" offset="1"/>
  </radialGradient>
  <linearGradient id="an" x1="-484.6" x2="-461.15" y1="554.08" y2="456.38" gradientTransform="matrix(.22482 0 0 .22482 -923.07 876.88)" gradientUnits="userSpaceOnUse">
   <stop offset="0"/>
   <stop stop-color="#333" offset="1"/>
  </linearGradient>
  <linearGradient id="ao" x1="-437.7" x2="-455.29" y1="360.63" y2="432.93" gradientTransform="matrix(.22482 0 0 .22482 -922.73 877.29)" gradientUnits="userSpaceOnUse">
   <stop offset="0"/>
   <stop stop-color="#333" stop-opacity="0" offset="1"/>
  </linearGradient>
  <filter id="a" x="-.0097841" y="-.0043266" width="1.0196" height="1.0087" color-interpolation-filters="sRGB">
   <feGaussianBlur stdDeviation="0.75524886"/>
  </filter>
  <linearGradient id="ap" x1="491.46" x2="502.31" y1="482.23" y2="516.72" gradientUnits="userSpaceOnUse">
   <stop stop-color="#666" offset="0"/>
   <stop stop-color="#999" offset="1"/>
  </linearGradient>
  <radialGradient id="at" cx="373.82" cy="668.92" r="103.05" gradientTransform="matrix(.6702 .23404 -.68453 1.9603 581.18 -745.42)" gradientUnits="userSpaceOnUse" xlink:href="#ae"/>
  <radialGradient id="au" cx="451.57" cy="711.18" r="103.05" gradientTransform="matrix(.66904 .23735 -.28028 .79006 277.62 133.36)" gradientUnits="userSpaceOnUse" xlink:href="#ae"/>
  <filter id="z" x="-.094653" y="-.21803" width="1.1893" height="1.4361" color-interpolation-filters="sRGB">
   <feGaussianBlur stdDeviation="9.4319146"/>
  </filter>
  <filter id="aj" x="-.032796" y="-.018924" width="1.0656" height="1.0378" color-interpolation-filters="sRGB">
   <feGaussianBlur stdDeviation="1.4674027"/>
  </filter>
  <filter id="ak" x="-.20053" y="-.043877" width="1.4011" height="1.0878" color-interpolation-filters="sRGB">
   <feGaussianBlur stdDeviation="3.0832831"/>
  </filter>
 </defs>
 <g transform="translate(1190.8 -851.38)">
  <g transform="matrix(.22482 0 0 .22482 -923.07 876.88)">
   <path d="m-1153.3 367.07 211.47 51.436s47.741-31.459 55.916-68.866c8.1758-37.407-3.8668-105.19-17.055-107.17-13.188-1.9829-206.39-35.605-206.39-35.605s-55.977-1.0251-67.661 60.181c-15.287 80.078 23.722 100.03 23.722 100.03z" fill="#e6e6e6" fill-rule="evenodd" stroke="#000" stroke-width="1px"/>
   <path d="m-1055.6 391.25s-68.525-102.55 24.52-172.08" fill="none" stroke="#b3b3b3" stroke-linecap="round" stroke-linejoin="round" stroke-width="9"/>
   <path d="m-1092.3 382.8s-77.047-95.857 22.085-170.26" fill="none" stroke="#b3b3b3" stroke-linecap="round" stroke-linejoin="round" stroke-width="9"/>
   <path d="m-1132 373.12s-74.612-101.34 25.737-166.61" fill="none" stroke="#b3b3b3" stroke-linecap="round" stroke-linejoin="round" stroke-width="9"/>
  </g>
  <path transform="matrix(.22482 0 0 .22482 -923.07 876.88)" d="m-1173.1 245.87 146.63 38.404s-8.7282 36.659-8.7282 45.387-141.4-34.913-141.4-34.913z" fill="#fff" fill-rule="evenodd" filter="url(#z)" opacity=".714"/>
  <g transform="matrix(.22482 0 0 .22482 -1149 828.3)">
   <path d="m379.68 651.03c-15.419 114.56-74.948 224.15-130.06 295.73-46.836 60.839-93.64 111.89-150.64 103.11-56.998-8.7755-107.07-57.813-136.47-145.02-29.401-87.208-25.02-205.44-9.6016-320 15.419-114.56 49.789-220.93 101-295.73 51.206-74.798 111.99-111.89 168.99-103.11 56.998 8.7755 105.54 62.699 134.94 149.91 29.401 87.208 37.256 200.56 21.838 315.11z"/>
   <path d="m360.52 649.13c-12.69 105.1-55.98 214.01-98.123 282.63-42.143 68.625-76.103 86.481-101.15 83.297-47.158-5.9931-86.858-57.525-111.06-137.54-24.197-80.012-21.851-184.01-9.161-289.11s40.977-202.7 83.12-271.33c42.143-68.625 92.173-102.66 139.08-94.604 46.91 8.0513 55.12 57.525 79.317 137.54 24.197 80.012 30.662 184.01 17.973 289.11z" fill="#4d4d4d" stroke="#333" stroke-dasharray="0.8562613, 0.8562613" stroke-linecap="round" stroke-linejoin="round" stroke-width="18.267"/>
   <path d="m28.888 728.41s9.8702-189.18 77.316-333.94c61.176-131.3-47.706 59.221-67.446 144.76-19.74 85.542-34.546 189.18-24.675 202.34 9.8702 13.16 14.805-13.16 14.805-13.16z" fill="url(#ah)" fill-rule="evenodd" stroke="#000" stroke-width=".81425px"/>
   <path d="m5.8577 817.24s41.948-292.82 79.784-432.64c37.836-139.83-92.707 6.1767-117.55 131.83-27.922 141.23-27.213 242.41-17.343 255.57s55.109 45.238 55.109 45.238z" fill="url(#ai)" fill-rule="evenodd"/>
   <path d="m357.23 652.61c-11.41 97.288-44.04 195.17-81.932 258.69-37.892 63.523-74.719 82.98-97.242 80.033-42.401-5.5476-78.096-53.248-99.852-127.31-21.756-74.063-19.646-170.33-8.2369-267.62 11.41-97.288 36.843-187.63 74.735-251.15 37.892-63.523 82.875-95.024 125.05-87.571 42.178 7.4528 49.56 53.248 71.316 127.31 21.756 74.063 27.569 170.33 16.16 267.62z" fill="#333" stroke="#333" stroke-dasharray="0.78116142, 0.78116142" stroke-linecap="round" stroke-linejoin="round" stroke-width="16.665"/>
  </g>
  <g transform="matrix(.22482 0 0 .22482 -1100.4 836.21)">
   <path d="m342.45 640.14c-20.161 140.69-98.001 275.28-170.06 363.19-61.243 74.718-122.44 137.41-196.97 126.64-74.53-10.777-140-71.002-178.44-178.1-38.445-107.1-32.716-252.31-12.555-393s65.104-271.33 132.06-363.19c66.957-91.861 146.44-137.41 220.97-126.64 74.53 10.777 138 77.002 176.44 184.1 38.445 107.1 48.716 246.31 28.555 387z"/>
   <path d="m319.92 637.78c-16.95 128.95-91.555 248.7-147.85 332.9-56.292 84.198-84.873 119.98-118.33 116.07-62.99-7.3531-116.02-70.578-148.34-168.75-32.321-98.168-29.187-225.76-12.237-354.72 16.95-128.95 54.734-248.7 111.03-332.9 56.292-84.198 123.12-125.95 185.78-116.07 62.659 9.8784 73.625 70.578 105.95 168.75 32.321 98.168 40.957 225.76 24.007 354.72z" fill="#4d4d4d" stroke="#333" stroke-dasharray="1.09616396, 1.09616396" stroke-linecap="round" stroke-linejoin="round" stroke-width="23.385"/>
   <path d="m-123.24 735.17s12.122-232.34 94.954-410.12c75.132-161.26-58.589 72.731-82.833 177.79-24.244 105.06-42.426 232.34-30.305 248.5s18.183-16.162 18.183-16.162z" fill="url(#af)" fill-rule="evenodd" stroke="#000" stroke-width="1px"/>
   <path d="m-151.52 844.27s51.518-359.61 97.985-531.34-113.86 7.5858-144.37 161.9c-34.292 173.44-33.421 297.72-21.299 313.88s67.68 55.558 67.68 55.558z" fill="url(#ag)" fill-rule="evenodd"/>
   <path d="m306.9 642.05c-15.036 119.39-81.217 230.25-131.15 308.2-49.936 77.952-75.289 111.08-104.97 107.46-55.878-6.8076-102.92-65.343-131.59-156.23-28.672-90.886-25.891-209.02-10.855-328.4 15.036-119.39 48.554-230.25 98.49-308.2 49.936-77.952 109.22-116.61 164.8-107.46 55.584 9.1456 65.312 65.343 93.983 156.23 28.672 90.886 36.332 209.02 21.296 328.4z" fill="#333" stroke="#333" stroke-dasharray="0.99338912, 0.99338912" stroke-linecap="round" stroke-linejoin="round" stroke-width="21.192"/>
  </g>
  <path transform="matrix(.22482 0 0 .22482 -923.07 876.88)" d="m-996.73 753.34s-55.374-241.43 11.075-471.79 130.68-281.3 130.68-281.3" fill="none" filter="url(#y)" stroke="url(#aq)" stroke-width="6"/>
  <path d="m-1059.7 946.66s-5.2807-20.288-13.978-20.598-26.403 19.045-27.957 33.955c-1.5531 14.91 0.2377 39.894 14.216 41.447 13.978 1.5532 23.37-25.916 23.37-25.916z" fill="url(#am)" fill-rule="evenodd"/>
  <path d="m-1059.7 946.66s-6.4502-20.678-15.148-20.988-25.234 19.435-26.787 34.345c-1.5531 14.91 0.043 41.648 14.021 43.201 13.978 1.5531 23.565-27.67 23.565-27.67z" fill="url(#al)" fill-rule="evenodd"/>
  <path d="m-1078.6 942.9s50.975 11.542 70.744 16.374c19.768 4.8322 77.755 21.525 77.755 21.525l-8.3466 43.93s-58.866-13.618-81.27-19.329c-22.404-5.7109-71.139-21.38-71.139-21.38s-0.6991-11.389 2.9268-25.971c2.7821-11.189 9.3295-15.163 9.3295-15.163z" fill="url(#an)" fill-rule="evenodd" stroke="#000" stroke-width=".22482px"/>
  <path d="m-1078.5 942.75s51.255 12.105 71.023 16.938c19.768 4.8322 77.755 21.525 77.755 21.525l-8.3466 43.93s-58.866-13.618-81.27-19.329c-22.404-5.7109-74.258-20.6-74.258-20.6s0.9224-9.5247 4.876-24.021c4.5738-17.281 7.2244-14.567 10.22-18.442z" fill="url(#ao)" fill-rule="evenodd"/>
  <path d="m-1087.7 988.28s-6.2126-18.327-0.3106-31.063c5.9019-12.736 9.6295-18.327 14.6-18.327 4.97 0-2.5643-12.912-2.5643-12.912s-22.286 11.048-24.46 31.55c-2.1744 20.502-3.4294 30.337 1.8638 39.761 1.7346 3.0879 10.872-9.0082 10.872-9.0082z" fill="url(#as)" fill-rule="evenodd"/>
  <g transform="matrix(.22482 0 0 .22482 -923.07 876.88)">
   <path d="m342.45 640.14c-20.161 140.69-98.001 275.28-170.06 363.19-61.243 74.718-122.44 137.41-196.97 126.64-74.53-10.777-140-71.002-178.44-178.1-38.445-107.1-32.716-252.31-12.555-393s65.104-271.33 132.06-363.19c66.957-91.861 146.44-137.41 220.97-126.64 74.53 10.777 138 77.002 176.44 184.1 38.445 107.1 48.716 246.31 28.555 387z"/>
   <path d="m319.92 637.78c-16.95 128.95-91.555 248.7-147.85 332.9-56.292 84.198-84.873 119.98-118.33 116.07-62.99-7.3531-116.02-70.578-148.34-168.75-32.321-98.168-29.187-225.76-12.237-354.72 16.95-128.95 54.734-248.7 111.03-332.9 56.292-84.198 123.12-125.95 185.78-116.07 62.659 9.8784 73.625 70.578 105.95 168.75 32.321 98.168 40.957 225.76 24.007 354.72z" fill="#4d4d4d" stroke="#333" stroke-dasharray="1.09616396, 1.09616396" stroke-linecap="round" stroke-linejoin="round" stroke-width="23.385"/>
   <path d="m-123.24 735.17s12.122-232.34 94.954-410.12c75.132-161.26-58.589 72.731-82.833 177.79-24.244 105.06-42.426 232.34-30.305 248.5s18.183-16.162 18.183-16.162z" fill="url(#af)" fill-rule="evenodd" stroke="#000" stroke-width="1px"/>
   <path d="m-151.52 844.27s51.518-359.61 97.985-531.34-113.86 7.5858-144.37 161.9c-34.292 173.44-33.421 297.72-21.299 313.88s67.68 55.558 67.68 55.558z" fill="url(#ag)" fill-rule="evenodd"/>
   <path d="m306.9 642.05c-15.036 119.39-81.217 230.25-131.15 308.2-49.936 77.952-75.289 111.08-104.97 107.46-55.878-6.8076-102.92-65.343-131.59-156.23-28.672-90.886-25.891-209.02-10.855-328.4 15.036-119.39 48.554-230.25 98.49-308.2 49.936-77.952 109.22-116.61 164.8-107.46 55.584 9.1456 65.312 65.343 93.983 156.23 28.672 90.886 36.332 209.02 21.296 328.4z" fill="#333" stroke="#333" stroke-dasharray="0.99338912, 0.99338912" stroke-linecap="round" stroke-linejoin="round" stroke-width="21.192"/>
   <path d="m379.68 651.03c-15.419 114.56-74.948 224.15-130.06 295.73-46.836 60.839-93.64 111.89-150.64 103.11-56.998-8.7755-107.07-57.813-136.47-145.02-29.401-87.208-25.02-205.44-9.6016-320 15.419-114.56 49.789-220.93 101-295.73 51.206-74.798 111.99-111.89 168.99-103.11 56.998 8.7755 105.54 62.699 134.94 149.91 29.401 87.208 37.256 200.56 21.838 315.11z"/>
   <path d="m360.52 649.13c-12.69 105.1-55.98 214.01-98.123 282.63-42.143 68.625-76.103 86.481-101.15 83.297-47.158-5.9931-86.858-57.525-111.06-137.54-24.197-80.012-21.851-184.01-9.161-289.11s40.977-202.7 83.12-271.33c42.143-68.625 92.173-102.66 139.08-94.604 46.91 8.0513 55.12 57.525 79.317 137.54 24.197 80.012 30.662 184.01 17.973 289.11z" fill="#4d4d4d" stroke="#333" stroke-dasharray="0.8562613, 0.8562613" stroke-linecap="round" stroke-linejoin="round" stroke-width="18.267"/>
   <path d="m28.888 728.41s9.8702-189.18 77.316-333.94c61.176-131.3-47.706 59.221-67.446 144.76-19.74 85.542-34.546 189.18-24.675 202.34 9.8702 13.16 14.805-13.16 14.805-13.16z" fill="url(#ah)" fill-rule="evenodd" stroke="#000" stroke-width=".81425px"/>
   <path d="m5.8577 817.24s41.948-292.82 79.784-432.64c37.836-139.83-92.707 6.1767-117.55 131.83-27.922 141.23-27.213 242.41-17.343 255.57s55.109 45.238 55.109 45.238z" fill="url(#ai)" fill-rule="evenodd"/>
   <path d="m357.23 652.61c-11.41 97.288-44.04 195.17-81.932 258.69-37.892 63.523-74.719 82.98-97.242 80.033-42.401-5.5476-78.096-53.248-99.852-127.31-21.756-74.063-19.646-170.33-8.2369-267.62 11.41-97.288 36.843-187.63 74.735-251.15 37.892-63.523 82.875-95.024 125.05-87.571 42.178 7.4528 49.56 53.248 71.316 127.31 21.756 74.063 27.569 170.33 16.16 267.62z" fill="#333" stroke="#333" stroke-dasharray="0.78116142, 0.78116142" stroke-linecap="round" stroke-linejoin="round" stroke-width="16.665"/>
   <path d="m-203.49 914.44s-55.374-241.43 11.075-471.79 130.68-281.3 130.68-281.3" fill="none" filter="url(#y)" stroke="url(#ar)" stroke-width="6"/>
  </g>
  <g transform="matrix(.22482 0 0 .22482 -961.03 868)" fill-rule="evenodd">
   <path d="m375.81 890.23c-28.062-6.7721-5.0406-84.476-10.985-105.58s-32.749-21.842-27.667-68.354c6.9867-63.943 30.669-58.132 42.315-99.277 9.7914-34.593-6.316-105.96 27.362-121.4 8.4576-3.8789 47.143 3.6796 55.089 5.0266 7.6869 1.3031-24.411 16.461-16.959 13.74 29.087-10.62 31.059-43.654 40.437-42.066 0 0 54.837-7.0947 53.228 15.747-1.6086 22.842-49.505 82.212-45.436 90.35 8.1374 16.275 31.534 25.379 28.279 46.536s-45.977 114.13-45.977 130.4c0 16.275-2.1864 79.747-21.716 91.139-19.53 11.392-7.0686 41.913-22.582 46.683-15.422 4.7419-36.556 1.5994-55.386-2.9449z" fill="url(#ap)" filter="url(#a)" stroke="#fff" stroke-width="2"/>
   <path d="m375.81 890.23c-28.062-6.7721-5.0406-84.476-10.985-105.58s-32.749-21.842-27.667-68.354c6.9867-63.943 30.669-58.132 42.315-99.277 9.7914-34.593-6.316-105.96 27.362-121.4 8.4576-3.8789 47.143 3.6796 55.089 5.0266 7.6869 1.3031-24.411 16.461-16.959 13.74 29.087-10.62 31.059-43.654 40.437-42.066 0 0 54.837-7.0947 53.228 15.747-1.6086 22.842-49.505 82.212-45.436 90.35 8.1374 16.275 31.534 25.379 28.279 46.536s-45.977 114.13-45.977 130.4c0 16.275-2.1864 79.747-21.716 91.139-19.53 11.392-7.0686 41.913-22.582 46.683-15.422 4.7419-36.556 1.5994-55.386-2.9449z" fill="url(#at)" filter="url(#a)" stroke="#fff" stroke-width="2"/>
   <path d="m375.81 890.23c-28.062-6.7721-5.0406-84.476-10.985-105.58s-32.749-21.842-27.667-68.354c6.9867-63.943 30.669-58.132 42.315-99.277 9.7914-34.593-6.316-105.96 27.362-121.4 8.4576-3.8789 47.143 3.6796 55.089 5.0266 7.6869 1.3031-24.411 16.461-16.959 13.74 29.087-10.62 31.059-43.654 40.437-42.066 0 0 54.837-7.0947 53.228 15.747-1.6086 22.842-49.505 82.212-45.436 90.35 8.1374 16.275 31.534 25.379 28.279 46.536s-45.977 114.13-45.977 130.4c0 16.275-2.1864 79.747-21.716 91.139-19.53 11.392-7.0686 41.913-22.582 46.683-15.422 4.7419-36.556 1.5994-55.386-2.9449z" fill="url(#au)" filter="url(#a)"/>
   <path d="m426.15 896.34c-28.062-6.7721-5.0406-84.476-10.985-105.58s-32.749-21.842-27.667-68.354c6.9867-63.943 30.669-58.132 42.315-99.277 9.7914-34.593-6.316-105.96 27.362-121.4 16.915-7.7578 20.901 24.208 35.805 18.767 29.087-10.62 28.053-53.898 46.638-40.128 12.563 9.3079-4.2216 87.884 3.9158 104.16 8.1374 16.275 31.534 25.379 28.279 46.536s-45.977 114.13-45.977 130.4c0 16.275-2.1864 79.747-21.716 91.139-19.53 11.392-18.309-12.348-33.822-7.5785-15.422 4.7419-25.316 55.861-44.146 51.317z" fill="#c0c2c1" filter="url(#a)"/>
  </g>
  <path transform="matrix(.22482 0 0 .22482 -923.07 876.88)" d="m325.67 571.61-60.094-11.631s1.9385 13.57-9.6925 38.77c-11.631 25.201-36.832 46.524-36.832 69.786s-3.877 46.524 5.8155 52.34c9.6925 5.8155 19.385 19.385 19.385 19.385l54.278 5.8155z" fill="#e6e6e6" fill-rule="evenodd" filter="url(#aj)" opacity=".689"/>
  <g transform="matrix(.22482 0 0 .22482 -923.07 876.88)">
   <path d="m293.98 745.24 230.03 59.364s48.235-30.695 57.005-67.968-2.1925-105.24-15.348-107.43c-13.155-2.1925-235.47-60.91-235.47-60.91s-44.16 23.846-53.58 85.441c-10.269 67.14 17.356 91.505 17.356 91.505z" fill="#e6e6e6" fill-rule="evenodd" stroke="#000" stroke-width="1px"/>
   <ellipse transform="matrix(.97302 .23074 -.21442 .97674 0 0)" cx="687.56" cy="571.78" rx="37.319" ry="89.098" fill="#e6e6e6" stroke="#999" stroke-linecap="round" stroke-linejoin="round" stroke-width="2.0428"/>
   <path d="m493.97 798.08s-53.533-100.98 35.283-178.85" fill="none" stroke="#b3b3b3" stroke-linecap="round" stroke-linejoin="round" stroke-width="9"/>
   <path d="m453.82 788.35s-53.533-100.98 35.283-178.85" fill="none" stroke="#b3b3b3" stroke-linecap="round" stroke-linejoin="round" stroke-width="9"/>
   <path d="m412.45 778.61s-53.533-100.98 35.283-178.85" fill="none" stroke="#b3b3b3" stroke-linecap="round" stroke-linejoin="round" stroke-width="9"/>
   <path d="m369.87 767.66s-53.533-100.98 35.283-178.85" fill="none" stroke="#b3b3b3" stroke-linecap="round" stroke-linejoin="round" stroke-width="9"/>
   <path d="m328.5 756.71s-53.533-100.98 35.283-178.85" fill="none" stroke="#b3b3b3" stroke-linecap="round" stroke-linejoin="round" stroke-width="9"/>
  </g>
  <path transform="matrix(.22482 0 0 .22482 -923.07 876.88)" d="m279.3 629.92 235.66 57.606s-8.7282 36.659-8.7282 45.387-230.43-54.115-230.43-54.115z" fill="#fff" fill-rule="evenodd" filter="url(#z)" opacity=".714"/>
  <path transform="matrix(.22482 0 0 .22482 -923.07 876.88)" d="m291.58 565.33s-36.079 46.444-39.573 97.396c-3.7162 54.191 15.508 79.479 15.508 79.479" fill="none" filter="url(#ak)" stroke="#000" stroke-width="1px"/>
 </g>
</svg>
